<?xml version="1.0" encoding="iso-8859-1"?>
<!-- Uploaded to: SVG Repo, www.svgrepo.com, Generator: SVG Repo Mixer Tools -->
<svg fill="#000000" height="800px" width="800px" version="1.1" id="Layer_1" xmlns="http://www.w3.org/2000/svg" xmlns:xlink="http://www.w3.org/1999/xlink" 
	 viewBox="0 0 512 512" xml:space="preserve">
<g>
	<g>
		<path d="M353.684,40.426c-53.454,0-97.321,41.728-100.803,94.315h-40.67V60.636c0-7.883-4.584-15.047-11.741-18.351L112.893,1.865
			c-10.132-4.677-22.141-0.253-26.819,9.882c-4.677,10.133-0.253,22.141,9.881,26.819l75.837,35.002v61.173H77.477
			c-5.71,0-11.153,2.416-14.985,6.649c-3.832,4.233-5.694,9.891-5.125,15.573l9.433,94.334c0.001,0.024,0.004,0.047,0.007,0.071
			l24.243,242.434C92.083,504.133,100.776,512,111.159,512h161.683c10.383,0,19.077-7.867,20.109-18.199l24.243-242.434
			c0.003-0.024,0.005-0.049,0.007-0.071l1.505-15.05c11.14,4.107,22.991,6.284,34.976,6.284c55.72,0,101.052-45.332,101.052-101.052
			S409.404,40.426,353.684,40.426z M171.79,471.581h-42.341l-20.21-202.104h62.551V471.581z M171.791,229.056h-66.595l-5.389-53.894
			h71.984V229.056z M254.553,471.581h-42.341V269.477h62.551L254.553,471.581z M278.805,229.056h-66.593v-53.894h71.983
			L278.805,229.056z M353.684,202.109c-10.997,0-21.469-2.871-30.728-8.348l3.68-36.798c0.569-5.682-1.293-11.339-5.125-15.573
			c-3.831-4.235-9.275-6.649-14.985-6.649h-13.09c3.363-30.272,29.094-53.894,60.247-53.894c33.432,0,60.631,27.199,60.631,60.631
			S387.116,202.109,353.684,202.109z"/>
	</g>
</g>
</svg>